<?xml version="1.0" encoding="utf-8"?>
<!-- Generator: Adobe Illustrator 16.0.0, SVG Export Plug-In . SVG Version: 6.00 Build 0)  -->
<!DOCTYPE svg PUBLIC "-//W3C//DTD SVG 1.1//EN" "http://www.w3.org/Graphics/SVG/1.1/DTD/svg11.dtd">
<svg version="1.1" id="图层_1" xmlns="http://www.w3.org/2000/svg" xmlns:xlink="http://www.w3.org/1999/xlink" x="0px" y="0px"
	 width="18px" height="18px" viewBox="0 0 18 18" enable-background="new 0 0 18 18" xml:space="preserve">
<g>
	<path fill="#5883A4" d="M4,17.5c-1.93,0-3.5-1.57-3.5-3.5V4c0-1.93,1.57-3.5,3.5-3.5h10c1.93,0,3.5,1.57,3.5,3.5v10
		c0,1.93-1.57,3.5-3.5,3.5H4z"/>
	<path d="M14,1c1.654,0,3,1.346,3,3v10c0,1.654-1.346,3-3,3H4c-1.654,0-3-1.346-3-3V4c0-1.654,1.346-3,3-3H14 M14,0H4
		C1.791,0,0,1.791,0,4v10c0,2.209,1.791,4,4,4h10c2.209,0,4-1.791,4-4V4C18,1.791,16.209,0,14,0L14,0z"/>
</g>
<g>
	<path d="M13.595,14.124V3.829L11.98,2.422L6.544,4.453v0.516l4.911-1.665v11.553h3.289v-0.733H13.595z M13.595,14.124"/>
	<path d="M4.772,10.954l2.604-0.524V9.131L4.772,9.806V10.954z M4.772,14.857h2.604V13.5l-2.604,0.209V14.857z M4.772,12.926
		l2.604-0.259V11.37l-2.604,0.416V12.926z M4.772,8.973l2.604-0.725V6.9L4.772,7.782V8.973z M4.772,8.973"/>
	<path d="M10.199,5.594L8.742,4.711l-5.485,1.98v8.216h0.732V7.05l4.12-1.348v9.155h2.146L10.199,5.594z M10.199,5.594"/>
</g>
</svg>
