<?xml version="1.0" encoding="utf-8"?>
<!-- Generator: Adobe Illustrator 16.0.0, SVG Export Plug-In . SVG Version: 6.00 Build 0)  -->
<!DOCTYPE svg PUBLIC "-//W3C//DTD SVG 1.1//EN" "http://www.w3.org/Graphics/SVG/1.1/DTD/svg11.dtd">
<svg version="1.1" id="图层_1" xmlns="http://www.w3.org/2000/svg" xmlns:xlink="http://www.w3.org/1999/xlink" x="0px" y="0px"
	 width="18px" height="18px" viewBox="0 0 18 18" enable-background="new 0 0 18 18" xml:space="preserve">
<g>
	<path fill="#122A3C" d="M8.993,17.484c-4.683,0-8.493-3.81-8.493-8.491C0.5,4.31,4.31,0.5,8.993,0.5
		c4.683,0,8.493,3.81,8.493,8.494C17.484,13.676,13.676,17.484,8.993,17.484z"/>
	<path fill="#00FFFF" d="M8.993,1c4.407,0,7.993,3.586,7.993,7.994c0,4.406-3.586,7.992-7.993,7.992C4.585,16.984,1,13.4,1,8.994
		C1,4.586,4.585,1,8.993,1 M8.993,0C4.026,0,0,4.026,0,8.994c0,4.965,4.026,8.992,8.993,8.992c4.967,0,8.993-4.026,8.993-8.992
		C17.984,4.026,13.959,0,8.993,0L8.993,0z"/>
</g>
<g>
	<path fill="#00FFFF" d="M7.74,4.096h2.419L9.918,6.055H7.982L7.74,4.096z"/>
	<path fill="#00FFFF" d="M8.104,4.391h1.693l-0.17,1.371H8.272L8.104,4.391z"/>
	<path fill="#00FFFF" d="M8.334,4.913h1.231L9.361,5.565H8.54L8.334,4.913z"/>
	<path fill="#00FFFF" d="M7.014,5.965h0.484V3.508H7.014V5.965z M10.401,6.063h0.484V3.606h-0.484V6.063z"/>
	<rect x="6.754" y="5.565" fill="#00FFFF" width="4.467" height="1.142"/>
	<path fill="#00FFFF" d="M9,2.566L6.907,3.637v0.536h4.188V3.637L9,2.566z M10.676,7.707L10.57,7.386H7.43L7.116,8.617L10.676,7.707
		z M6.802,9.795l-0.367,1.499l4.815-1.285l-0.314-1.337L6.802,9.795z M11.879,12.313l-0.367-1.286l-5.39,1.392l-0.418,1.5
		L11.879,12.313z M5.442,15.097l-0.105,0.321h7.326l-0.521-2.09L5.442,15.097z"/>
</g>
</svg>
