<?xml version="1.0" encoding="utf-8"?>
<!-- Generator: Adobe Illustrator 16.0.0, SVG Export Plug-In . SVG Version: 6.00 Build 0)  -->
<!DOCTYPE svg PUBLIC "-//W3C//DTD SVG 1.1//EN" "http://www.w3.org/Graphics/SVG/1.1/DTD/svg11.dtd">
<svg version="1.1" id="图层_1" xmlns="http://www.w3.org/2000/svg" xmlns:xlink="http://www.w3.org/1999/xlink" x="0px" y="0px"
	 width="18px" height="18px" viewBox="0 0 18 18" enable-background="new 0 0 18 18" xml:space="preserve">
<g>
	<path fill="#122A3C" d="M8.993,17.484c-4.683,0-8.493-3.81-8.493-8.491C0.5,4.31,4.31,0.5,8.993,0.5
		c4.683,0,8.493,3.81,8.493,8.494C17.484,13.676,13.676,17.484,8.993,17.484z"/>
	<path fill="#00FFFF" d="M8.993,1c4.407,0,7.993,3.586,7.993,7.994c0,4.406-3.586,7.992-7.993,7.992C4.585,16.984,1,13.4,1,8.994
		C1,4.586,4.585,1,8.993,1 M8.993,0C4.026,0,0,4.026,0,8.994c0,4.965,4.026,8.992,8.993,8.992c4.967,0,8.993-4.026,8.993-8.992
		C17.984,4.026,13.959,0,8.993,0L8.993,0z"/>
</g>
<g>
	<path fill="#00FFFF" d="M9.38,9.181c0,0-1.589-0.589-2.865-0.938C6.283,8.181,3.347,7.254,5.436,6.656
		c1.003-0.241,2.023-0.401,3.052-0.482c0.535-0.053,1.596-0.633,0.48-1.07c-0.223-0.089-0.571-0.5,0.892-0.624
		c0.358,0,0.973-0.714-0.205-0.474c-1.177,0.241-0.518,0.25-1.159,0.312C7.853,4.381,6.301,4.757,6.996,4.944
		C7.692,5.131,8.96,5.291,7.952,5.568C7.71,5.64,5.945,5.773,4.749,6.059C3.856,6.282,2.135,7.308,3.115,9.001
		c0.429,0.731,2.257,1.865,2.597,2.141c0.851,0.609,1.569,1.382,2.114,2.275h7.351C13.779,11.391,11.734,9.896,9.38,9.181
		L9.38,9.181z"/>
</g>
</svg>
