<?xml version="1.0" encoding="utf-8"?>
<!-- Generator: Adobe Illustrator 16.0.0, SVG Export Plug-In . SVG Version: 6.00 Build 0)  -->
<!DOCTYPE svg PUBLIC "-//W3C//DTD SVG 1.1//EN" "http://www.w3.org/Graphics/SVG/1.1/DTD/svg11.dtd">
<svg version="1.1" id="图层_1" xmlns="http://www.w3.org/2000/svg" xmlns:xlink="http://www.w3.org/1999/xlink" x="0px" y="0px"
	 width="18px" height="18px" viewBox="0 0 18 18" enable-background="new 0 0 18 18" xml:space="preserve">
<g>
	<path fill="#122A3C" d="M8.993,17.485c-4.683,0-8.493-3.81-8.493-8.492C0.5,4.31,4.31,0.5,8.993,0.5s8.493,3.81,8.493,8.494
		C17.485,13.676,13.676,17.485,8.993,17.485z"/>
	<path fill="#FFFC00" d="M8.993,1c4.407,0,7.993,3.586,7.993,7.994c0,4.407-3.586,7.992-7.993,7.992C4.585,16.985,1,13.4,1,8.994
		C1,4.586,4.585,1,8.993,1 M8.993,0C4.026,0,0,4.026,0,8.994c0,4.965,4.026,8.992,8.993,8.992s8.993-4.026,8.993-8.992
		C17.985,4.026,13.959,0,8.993,0L8.993,0z"/>
</g>
<g>
	<g>
		<path fill="#FFFC00" d="M5.043,8.937c0,0,2.965,1.294,5.763,0.73c2.168-0.436,3.78-0.521,3.78-0.521s0.333,1.92-0.439,2.443
			c-0.771,0.522-4.614,0.834-4.614,0.834L4.334,12.11c0,0-1.171-1.086-0.982-1.9C3.54,9.396,5.043,8.937,5.043,8.937L5.043,8.937z"
			/>
		<path fill="#FFFC00" d="M12.227,12.635c-0.023,0-0.046,0-0.068,0h-0.071H4.886v-0.013c-1.068-0.118-1.9-1.007-1.9-2.082
			c0-1.011,0.737-1.864,1.724-2.055c0.092-2,1.787-3.602,3.859-3.602c1.561,0,2.961,0.917,3.562,2.307
			c0.031,0,0.063-0.001,0.096-0.001c1.536,0,2.786,1.221,2.786,2.723c0,1.445-1.155,2.63-2.612,2.717v0.002l-0.036,0.001
			C12.317,12.633,12.272,12.635,12.227,12.635L12.227,12.635z M12.103,12.005c0.041,0.003,0.082,0.004,0.124,0.004
			c1.19,0,2.159-0.941,2.159-2.097c0-1.157-0.969-2.097-2.159-2.097c-0.09,0-0.18,0.006-0.267,0.016l-0.248,0.029l-0.084-0.237
			C11.177,6.359,9.949,5.51,8.569,5.51c-1.785,0-3.235,1.411-3.235,3.144c0,0.033,0,0.065,0.001,0.098l0.011,0.306L5.039,9.075
			c-0.8,0.045-1.426,0.688-1.426,1.465c0,0.811,0.68,1.468,1.515,1.468c0.019,0,0.04,0,0.06-0.002l0.325,0.002h6.261L12.103,12.005z
			"/>
	</g>
</g>
</svg>
