<?xml version="1.0" encoding="utf-8"?>
<!-- Generator: Adobe Illustrator 16.0.0, SVG Export Plug-In . SVG Version: 6.00 Build 0)  -->
<!DOCTYPE svg PUBLIC "-//W3C//DTD SVG 1.1//EN" "http://www.w3.org/Graphics/SVG/1.1/DTD/svg11.dtd">
<svg version="1.1" id="图层_1" xmlns="http://www.w3.org/2000/svg" xmlns:xlink="http://www.w3.org/1999/xlink" x="0px" y="0px"
	 width="18px" height="18px" viewBox="0 0 18 18" enable-background="new 0 0 18 18" xml:space="preserve">
<g>
	<path fill="#122A3C" d="M8.993,17.485c-4.683,0-8.493-3.81-8.493-8.492C0.5,4.31,4.31,0.5,8.993,0.5s8.493,3.81,8.493,8.494
		C17.485,13.676,13.676,17.485,8.993,17.485z"/>
	<path fill="#00FFFF" d="M8.993,1c4.407,0,7.993,3.586,7.993,7.994c0,4.407-3.586,7.992-7.993,7.992C4.585,16.985,1,13.4,1,8.994
		C1,4.586,4.585,1,8.993,1 M8.993,0C4.026,0,0,4.026,0,8.994c0,4.965,4.026,8.992,8.993,8.992s8.993-4.026,8.993-8.992
		C17.985,4.026,13.959,0,8.993,0L8.993,0z"/>
</g>
<g>
	<path fill="#00FFFF" d="M8.669,4.571C8.19,5.161,7.732,5.769,7.294,6.39c-0.334,0.473-0.65,0.961-0.945,1.461
		c-0.649,1.105-1.007,2.017-1.007,2.633c0,2.079,1.64,3.76,3.657,3.76c2.017,0,3.657-1.683,3.657-3.76
		c0-0.616-0.358-1.528-1.005-2.633c-0.297-0.5-0.613-0.988-0.948-1.461c-0.536-0.765-1.105-1.504-1.704-2.221
		C8.896,4.293,8.786,4.426,8.669,4.571L8.669,4.571z M4.564,10.483c0-0.792,0.399-1.81,1.113-3.026
		c0.306-0.519,0.634-1.022,0.981-1.513c0.448-0.637,0.917-1.257,1.407-1.863c0.194-0.24,0.393-0.479,0.594-0.714l0.048-0.055
		l0.292-0.333l0.293,0.333L9.34,3.367c0.037,0.045,0.081,0.096,0.131,0.154c0.658,0.78,1.282,1.589,1.871,2.423
		c0.346,0.491,0.674,0.995,0.98,1.513c0.712,1.217,1.113,2.234,1.113,3.026c0,2.504-1.985,4.538-4.435,4.538
		C6.55,15.02,4.564,12.987,4.564,10.483L4.564,10.483z"/>
	<path fill="#00FFFF" d="M8.999,13.67c-1.709,0-3.094-1.39-3.094-3.104c0-1.716,1.608-0.848,3.094,0
		c1.492,0.848,3.094-1.716,3.094,0C12.093,12.28,10.708,13.67,8.999,13.67L8.999,13.67z"/>
</g>
</svg>
