<?xml version="1.0" encoding="utf-8"?>
<!-- Generator: Adobe Illustrator 16.0.0, SVG Export Plug-In . SVG Version: 6.00 Build 0)  -->
<!DOCTYPE svg PUBLIC "-//W3C//DTD SVG 1.1//EN" "http://www.w3.org/Graphics/SVG/1.1/DTD/svg11.dtd">
<svg version="1.1" id="图层_1" xmlns="http://www.w3.org/2000/svg" xmlns:xlink="http://www.w3.org/1999/xlink" x="0px" y="0px"
	 width="18px" height="18px" viewBox="0 0 18 18" enable-background="new 0 0 18 18" xml:space="preserve">
<g>
	<path fill="#122A3C" d="M8.993,17.485c-4.683,0-8.493-3.81-8.493-8.492C0.5,4.31,4.31,0.5,8.993,0.5s8.493,3.81,8.493,8.494
		C17.485,13.676,13.676,17.485,8.993,17.485z"/>
	<path fill="#00D8FF" d="M8.993,1c4.407,0,7.993,3.586,7.993,7.994c0,4.407-3.586,7.992-7.993,7.992C4.585,16.985,1,13.4,1,8.994
		C1,4.586,4.585,1,8.993,1 M8.993,0C4.026,0,0,4.026,0,8.994c0,4.965,4.026,8.992,8.993,8.992s8.993-4.026,8.993-8.992
		C17.985,4.026,13.959,0,8.993,0L8.993,0z"/>
</g>
<path fill="#00D8FF" d="M13.121,8.841l-0.014-0.03l-0.022-0.026l-0.026-0.021l-0.03-0.014L12.997,8.74
	c-0.021-0.004-0.092-0.074-0.166-0.162l-0.793-0.929c-0.074-0.088-0.193-0.088-0.272,0l-0.093,0.113
	c-0.074,0.088-0.192,0.228-0.271,0.315l-0.429,0.5c-0.075,0.088-0.193,0.088-0.273,0l-0.793-0.93c-0.07-0.088-0.192-0.088-0.271,0
	l-0.794,0.93c-0.075,0.087-0.193,0.087-0.272,0L8.341,8.311C8.267,8.223,8.148,8.082,8.069,7.994L7.775,7.648
	c-0.075-0.088-0.193-0.088-0.271,0L6.71,8.578c-0.07,0.087-0.193,0.087-0.271,0l-0.794-0.93c-0.074-0.088-0.193-0.088-0.271,0
	l-0.794,0.93C4.505,8.665,4.435,8.735,4.422,8.735L4.378,8.749L4.347,8.763L4.321,8.783L4.299,8.81L4.286,8.841L4.277,8.872
	l-0.004,5.25l0.013,0.043l0.013,0.031l0.022,0.025l0.026,0.021l0.031,0.014l0.03,0.01l8.555,0.004l0.043-0.014l0.031-0.014
	l0.026-0.021l0.021-0.025l0.014-0.031l0.01-0.031l0.004-5.018c0.022-0.118,0.022-0.219,0.022-0.232L13.121,8.841z M5.725,13.214
	H4.987v-0.736h0.737V13.214z M5.725,12.025H4.987v-0.736h0.737V12.025z M5.725,10.834H4.987v-0.736h0.737V10.834z M6.768,13.214
	H6.032v-0.736h0.736V13.214z M6.768,12.025H6.032v-0.736h0.736V12.025z M6.768,10.834H6.032v-0.736h0.736V10.834z M7.811,13.227
	H7.075V12.49h0.736V13.227z M7.811,12.039H7.075v-0.737h0.736V12.039z M7.811,10.848H7.075v-0.736h0.736V10.848z M8.837,13.227
	H8.101V12.49h0.737V13.227z M8.837,12.039H8.101v-0.737h0.737V12.039z M8.837,10.848H8.101v-0.736h0.737V10.848z M9.868,13.214H9.13
	v-0.736h0.736L9.868,13.214L9.868,13.214z M9.868,12.025H9.13v-0.736h0.736L9.868,12.025L9.868,12.025z M9.868,10.834H9.13v-0.736
	h0.736L9.868,10.834L9.868,10.834z"/>
<path fill="#00D8FF" d="M9.648,7.24c0.075-0.088,0.192-0.088,0.272,0l0.793,0.93c0.074,0.088,0.193,0.088,0.272,0l0.429-0.5
	c0.074-0.087,0.109-0.25,0.083-0.354c0,0-0.538-2.162-0.6-3.434c0-0.083-0.052-0.153-0.114-0.153H9.052
	c-0.062,0-0.11,0.07-0.11,0.153C8.872,5.232,8.28,7.547,8.28,7.547C8.25,7.661,8.289,7.819,8.363,7.902L8.591,8.17
	c0.074,0.088,0.193,0.088,0.272,0L9.648,7.24z"/>
</svg>
