<?xml version="1.0" encoding="utf-8"?>
<!-- Generator: Adobe Illustrator 16.0.0, SVG Export Plug-In . SVG Version: 6.00 Build 0)  -->
<!DOCTYPE svg PUBLIC "-//W3C//DTD SVG 1.1//EN" "http://www.w3.org/Graphics/SVG/1.1/DTD/svg11.dtd">
<svg version="1.1" id="图层_1" xmlns="http://www.w3.org/2000/svg" xmlns:xlink="http://www.w3.org/1999/xlink" x="0px" y="0px"
	 width="18px" height="18px" viewBox="0 0 18 18" enable-background="new 0 0 18 18" xml:space="preserve">
<g>
	<path fill="#122A3C" d="M8.993,17.484c-4.683,0-8.493-3.81-8.493-8.491C0.5,4.31,4.31,0.5,8.993,0.5
		c4.683,0,8.493,3.81,8.493,8.494C17.484,13.676,13.676,17.484,8.993,17.484z"/>
	<path fill="#0096FF" d="M8.993,1c4.407,0,7.993,3.586,7.993,7.994c0,4.406-3.586,7.992-7.993,7.992C4.585,16.984,1,13.4,1,8.994
		C1,4.586,4.585,1,8.993,1 M8.993,0C4.026,0,0,4.026,0,8.994c0,4.965,4.026,8.992,8.993,8.992c4.967,0,8.993-4.026,8.993-8.992
		C17.984,4.026,13.959,0,8.993,0L8.993,0z"/>
</g>
<g>
	<g>
		<path fill="#0096FF" d="M13.085,4.086H4.902c-0.846,0-1.551,0.705-1.551,1.599v7.147c0,0.894,0.705,1.6,1.551,1.6h8.183
			c0.847,0,1.552-0.706,1.552-1.6V5.685C14.637,4.792,13.932,4.086,13.085,4.086L13.085,4.086z M13.695,5.685v0.799h-1.41V5.026h0.8
			C13.414,5.026,13.695,5.309,13.695,5.685L13.695,5.685z M5.702,10.059h-1.41V8.459h1.41V10.059z M12.285,8.459h1.41v1.599h-1.41
			V8.459z M11.346,5.026v8.464H6.642V5.026H11.346z M4.902,5.026h0.8v1.458h-1.41V5.685C4.291,5.309,4.572,5.026,4.902,5.026
			L4.902,5.026z M4.291,12.832v-0.8h1.411v1.458H4.902C4.572,13.49,4.291,13.209,4.291,12.832L4.291,12.832z M13.085,13.49h-0.8
			v-1.458h1.41v0.8C13.695,13.209,13.414,13.49,13.085,13.49L13.085,13.49z"/>
	</g>
	<path fill="#0096FF" d="M10.451,9.258L7.724,7.283v3.951L10.451,9.258z"/>
</g>
</svg>
