<?xml version="1.0" encoding="utf-8"?>
<!-- Generator: Adobe Illustrator 16.0.0, SVG Export Plug-In . SVG Version: 6.00 Build 0)  -->
<!DOCTYPE svg PUBLIC "-//W3C//DTD SVG 1.1//EN" "http://www.w3.org/Graphics/SVG/1.1/DTD/svg11.dtd">
<svg version="1.1" id="图层_1" xmlns="http://www.w3.org/2000/svg" xmlns:xlink="http://www.w3.org/1999/xlink" x="0px" y="0px"
	 width="18px" height="18px" viewBox="0 0 18 18" enable-background="new 0 0 18 18" xml:space="preserve">
<g>
	<path fill="#122A3C" d="M8.993,17.484c-4.683,0-8.493-3.81-8.493-8.491C0.5,4.31,4.31,0.5,8.993,0.5
		c4.683,0,8.493,3.81,8.493,8.494C17.484,13.676,13.676,17.484,8.993,17.484z"/>
	<path fill="#FF9000" d="M8.993,1c4.407,0,7.993,3.586,7.993,7.994c0,4.406-3.586,7.992-7.993,7.992C4.585,16.984,1,13.4,1,8.994
		C1,4.586,4.585,1,8.993,1 M8.993,0C4.026,0,0,4.026,0,8.994c0,4.965,4.026,8.992,8.993,8.992c4.967,0,8.993-4.026,8.993-8.992
		C17.984,4.026,13.959,0,8.993,0L8.993,0z"/>
</g>
<g>
	<g>
		<path fill="#FF9000" d="M13.831,11.688c0,0,0-0.086-0.087-0.086c0.087-0.085,0.169-0.168,0.169-0.254c0,0-1.605-0.676-4.985-0.676
			c-3.378,0-4.984,0.676-4.984,0.676c0,0.086,0.084,0.169,0.168,0.254v0.086 M9.015,9.996c3.464,0,4.986,0.507,4.986,0.507
			c0-1.013,2.447-2.618,1.69-2.618c-4.309,0-5.153-2.705-6.675-2.705c-1.519,0-1.86,2.705-6.677,2.705
			c-0.76,0,1.016,1.605,1.016,2.618C3.354,10.503,5.551,9.996,9.015,9.996L9.015,9.996z M7.749,7.295h2.532v1.097
			c0,0.59-1.266,1.098-1.266,1.098S7.749,8.898,7.749,8.392V7.295z"/>
	</g>
</g>
<path fill="#FF9000" d="M4.721,11.903v0.076c-0.073,0.074-0.149,0.149-0.149,0.225c0,0,1.427,0.601,4.427,0.601
	c3.001,0,4.426-0.601,4.426-0.601c0-0.075-0.073-0.15-0.15-0.225c0.077,0,0.077-0.076,0.077-0.076"/>
</svg>
